<svg width="47" height="28" viewBox="0 0 47 28" fill="none" xmlns="http://www.w3.org/2000/svg">
<path d="M29.375 14C29.375 17.314 26.745 20 23.5 20C20.255 20 17.625 17.314 17.625 14C17.625 13.602 17.6642 13.214 17.7366 12.838C20.6232 13.92 23.4687 11.074 22.4464 8.096C22.7872 8.036 23.1397 8 23.5 8C26.745 8 29.375 10.688 29.375 14ZM23.5294 0C8.70675 0 0 13.102 0 13.102C0 13.102 9.46854 28 23.5294 28C38.6732 28 47 13.102 47 13.102C47 13.102 38.5968 0 23.5294 0ZM23.5 24C18.093 24 13.7083 19.524 13.7083 14C13.7083 8.478 18.093 4 23.5 4C28.9089 4 33.2917 8.478 33.2917 14C33.2917 19.524 28.9089 24 23.5 24Z" fill="#CFCFCF"/>
</svg>
