<svg width="53" height="38" viewBox="0 0 53 38" fill="none" xmlns="http://www.w3.org/2000/svg">
<path d="M35.375 24C35.375 27.314 32.745 30 29.5 30C26.255 30 23.625 27.314 23.625 24C23.625 23.602 23.6642 23.214 23.7366 22.838C26.6232 23.92 29.4687 21.074 28.4464 18.096C28.7872 18.036 29.1397 18 29.5 18C32.745 18 35.375 20.688 35.375 24ZM29.5294 10C14.7068 10 6 23.102 6 23.102C6 23.102 15.4685 38 29.5294 38C44.6732 38 53 23.102 53 23.102C53 23.102 44.5968 10 29.5294 10ZM29.5 34C24.093 34 19.7083 29.524 19.7083 24C19.7083 18.478 24.093 14 29.5 14C34.9089 14 39.2917 18.478 39.2917 24C39.2917 29.524 34.9089 34 29.5 34Z" fill="#3B3B3B"/>
<path d="M35.375 24C35.375 27.314 32.745 30 29.5 30C26.255 30 23.625 27.314 23.625 24C23.625 23.602 23.6642 23.214 23.7366 22.838C26.6232 23.92 29.4687 21.074 28.4464 18.096C28.7872 18.036 29.1397 18 29.5 18C32.745 18 35.375 20.688 35.375 24ZM29.5294 10C14.7068 10 6 23.102 6 23.102C6 23.102 15.4685 38 29.5294 38C44.6732 38 53 23.102 53 23.102C53 23.102 44.5968 10 29.5294 10ZM29.5 34C24.093 34 19.7083 29.524 19.7083 24C19.7083 18.478 24.093 14 29.5 14C34.9089 14 39.2917 18.478 39.2917 24C39.2917 29.524 34.9089 34 29.5 34Z" fill="#3B3B3B"/>
<path d="M24 4V19.38C24 25.5173 19.7293 27.1187 12 32C4.27067 27.1187 0 25.5173 0 19.38V4C4.688 4 7.50533 3.82133 12 0C16.4947 3.82133 19.312 4 24 4ZM21.3333 6.61333C18.072 6.448 15.3333 5.79867 12 3.392C8.66667 5.79867 5.928 6.448 2.66667 6.61333V19.38C2.66667 23.436 4.92 24.4867 12 28.856C19.084 24.4813 21.3333 23.436 21.3333 19.38V6.61333Z" fill="#5D5D5D"/>
<path d="M12 6.58936C14.436 8.06269 16.632 8.72269 18.6667 9.03336V19.38C18.6667 21.5214 18.1133 21.96 12 25.7267V6.58936Z" fill="#4D4D4D"/>
</svg>
