<svg width="59" height="36" viewBox="0 0 59 36" fill="none" xmlns="http://www.w3.org/2000/svg">
<path d="M41.375 22C41.375 25.314 38.745 28 35.5 28C32.255 28 29.625 25.314 29.625 22C29.625 21.602 29.6642 21.214 29.7366 20.838C32.6232 21.92 35.4687 19.074 34.4464 16.096C34.7872 16.036 35.1397 16 35.5 16C38.745 16 41.375 18.688 41.375 22ZM35.5294 8C20.7068 8 12 21.102 12 21.102C12 21.102 21.4685 36 35.5294 36C50.6732 36 59 21.102 59 21.102C59 21.102 50.5968 8 35.5294 8ZM35.5 32C30.093 32 25.7083 27.524 25.7083 22C25.7083 16.478 30.093 12 35.5 12C40.9089 12 45.2917 16.478 45.2917 22C45.2917 27.524 40.9089 32 35.5 32Z" fill="#3B3B3B"/>
<rect x="8.5" y="0.5" width="24" height="8" rx="1.5" fill="#535353" fill-opacity="0.6" stroke="#414141"/>
<rect x="0.5" y="9.5" width="32" height="10" rx="1.5" fill="#535353" stroke="#414141"/>
<rect x="8.5" y="20.5" width="24" height="7" rx="1.5" fill="#535353" fill-opacity="0.6" stroke="#414141"/>
</svg>
