<svg width="55" height="38" viewBox="0 0 55 38" fill="none" xmlns="http://www.w3.org/2000/svg">
<path d="M37.375 24C37.375 27.314 34.745 30 31.5 30C28.255 30 25.625 27.314 25.625 24C25.625 23.602 25.6642 23.214 25.7366 22.838C28.6232 23.92 31.4687 21.074 30.4464 18.096C30.7872 18.036 31.1397 18 31.5 18C34.745 18 37.375 20.688 37.375 24ZM31.5294 10C16.7068 10 8 23.102 8 23.102C8 23.102 17.4685 38 31.5294 38C46.6732 38 55 23.102 55 23.102C55 23.102 46.5968 10 31.5294 10ZM31.5 34C26.093 34 21.7083 29.524 21.7083 24C21.7083 18.478 26.093 14 31.5 14C36.9089 14 41.2917 18.478 41.2917 24C41.2917 29.524 36.9089 34 31.5 34Z" fill="#3B3B3B"/>
<path d="M37.375 24C37.375 27.314 34.745 30 31.5 30C28.255 30 25.625 27.314 25.625 24C25.625 23.602 25.6642 23.214 25.7366 22.838C28.6232 23.92 31.4687 21.074 30.4464 18.096C30.7872 18.036 31.1397 18 31.5 18C34.745 18 37.375 20.688 37.375 24ZM31.5294 10C16.7068 10 8 23.102 8 23.102C8 23.102 17.4685 38 31.5294 38C46.6732 38 55 23.102 55 23.102C55 23.102 46.5968 10 31.5294 10ZM31.5 34C26.093 34 21.7083 29.524 21.7083 24C21.7083 18.478 26.093 14 31.5 14C36.9089 14 41.2917 18.478 41.2917 24C41.2917 29.524 36.9089 34 31.5 34Z" fill="#3B3B3B"/>
<g clip-path="url(#clip0)">
<path d="M28.9307 14.2107L32 16L15.9973 25.3334L0 16L3.068 14.2107L15.9973 21.7547L28.9307 14.2107ZM15.9973 28.42L3.068 20.876L0 22.6667L15.9973 32L32 22.6667L28.9307 20.8774L15.9973 28.42Z" fill="#4D4D4D"/>
<path fill-rule="evenodd" clip-rule="evenodd" d="M20.9572 5.97971C20.3396 7.06837 20 8.25628 20 9.5C20 10.648 20.2894 11.7485 20.8196 12.7672C20.876 12.8756 20.9351 12.983 20.9969 13.0895C20.9979 13.0912 20.999 13.093 21 13.0948C21.3771 13.7434 21.8531 14.3561 22.4149 14.9237L15.9973 18.6667L0 9.33333L15.9973 0L22.6279 3.8672C21.9727 4.49239 21.4238 5.17612 21 5.90518C20.9856 5.92997 20.9713 5.95482 20.9572 5.97971ZM18.4079 14.1739C17.5068 12.7663 17 11.1792 17 9.5C17 7.72442 17.5666 6.05178 18.567 4.58551L15.9973 3.08667L5.292 9.33333L15.9973 15.58L18.4079 14.1739Z" fill="#5E5E5E"/>
</g>
<defs>
<clipPath id="clip0">
<rect width="32" height="32" fill="white"/>
</clipPath>
</defs>
</svg>
